<?xml version="1.0" standalone="no"?>
<!DOCTYPE svg PUBLIC "-//W3C//DTD SVG 20010904//EN"
 "http://www.w3.org/TR/2001/REC-SVG-20010904/DTD/svg10.dtd">
<svg version="1.0" xmlns="http://www.w3.org/2000/svg"
 width="512.000000pt" height="512.000000pt" viewBox="0 0 512.000000 512.000000"
 preserveAspectRatio="xMidYMid meet">

<g transform="translate(0.000000,512.000000) scale(0.100000,-0.100000)"
fill="#FFF" stroke="none">
<path d="M1998 4778 l-558 -340 0 -2069 0 -2069 -145 0 -145 0 0 440 0 440
-240 0 -240 0 0 150 0 150 240 0 240 0 0 150 0 150 -240 0 -241 0 3 148 3 147
238 3 237 2 0 150 0 150 -240 0 -241 0 3 147 3 148 238 3 238 2 -3 148 -3 147
-238 3 -238 2 3 148 3 147 238 3 237 2 0 295 0 295 -575 0 -575 0 0 -150 0
-150 85 0 85 0 0 -1635 0 -1635 -85 0 -85 0 0 -150 0 -150 2560 0 2560 0 0
150 0 150 -85 0 -85 0 0 1635 0 1635 85 0 85 0 0 150 0 150 -575 0 -575 0 0
-295 0 -295 238 -2 237 -3 3 -147 3 -148 -238 -2 -238 -3 -3 -147 -3 -148 241
0 240 0 0 -150 0 -150 -240 0 -240 0 0 -150 0 -150 240 0 240 0 0 -150 0 -150
-240 0 -240 0 0 -150 0 -150 240 0 240 0 0 -150 0 -150 -240 0 -240 0 0 -440
0 -440 -145 0 -145 0 0 2069 0 2069 -559 341 c-308 188 -561 341 -563 340 -2
0 -254 -154 -560 -341z m132 -1018 l0 -151 -147 3 -148 3 -3 148 -3 147 151 0
150 0 0 -150z m580 0 l0 -150 -150 0 -150 0 0 150 0 150 150 0 150 0 0 -150z
m568 3 l-3 -148 -147 -3 -148 -3 0 151 0 150 150 0 151 0 -3 -147z m-1148
-623 l0 -150 -150 0 -150 0 0 143 c0 79 3 147 7 150 3 4 71 7 150 7 l143 0 0
-150z m580 0 l0 -150 -150 0 -150 0 0 150 0 150 150 0 150 0 0 -150z m568 -2
l3 -148 -151 0 -150 0 0 150 0 151 148 -3 147 -3 3 -147z m-1148 -628 l0 -150
-150 0 -150 0 0 150 0 150 150 0 150 0 0 -150z m580 0 l0 -150 -150 0 -150 0
0 150 0 150 150 0 150 0 0 -150z m570 0 l0 -150 -150 0 -150 0 0 150 0 150
150 0 150 0 0 -150z m-1150 -630 l0 -150 -150 0 -150 0 0 150 0 150 150 0 150
0 0 -150z m580 0 l0 -150 -150 0 -150 0 0 150 0 150 150 0 150 0 0 -150z m570
0 l0 -150 -150 0 -150 0 0 150 0 150 150 0 150 0 0 -150z m-1150 -630 l0 -150
-150 0 -150 0 0 150 0 150 150 0 150 0 0 -150z m580 0 l0 -150 -150 0 -150 0
0 150 0 150 150 0 150 0 0 -150z m570 0 l0 -150 -150 0 -150 0 0 150 0 150
150 0 150 0 0 -150z m-570 -685 l0 -265 -150 0 -150 0 0 265 0 265 150 0 150
0 0 -265z"/>
</g>
</svg>
