<?xml version="1.0" standalone="no"?>
<!DOCTYPE svg PUBLIC "-//W3C//DTD SVG 20010904//EN"
 "http://www.w3.org/TR/2001/REC-SVG-20010904/DTD/svg10.dtd">
<svg version="1.0" xmlns="http://www.w3.org/2000/svg"
 width="512.000000pt" height="512.000000pt" viewBox="0 0 512.000000 512.000000"
 preserveAspectRatio="xMidYMid meet">

<g transform="translate(0.000000,512.000000) scale(0.100000,-0.100000)"
fill="#FFF" stroke="none">
<path d="M1481 4714 c-805 -178 -1468 -325 -1472 -326 -8 -3 779 -709 798
-715 6 -2 18 25 28 61 20 75 4 67 200 95 213 30 374 41 618 41 483 0 828 -63
1202 -219 361 -151 821 -457 1169 -777 l77 -72 -36 -117 c-20 -64 -35 -119
-33 -121 3 -2 136 21 297 52 160 31 294 54 297 51 5 -5 -234 -786 -246 -799
-3 -4 -42 4 -87 19 -45 15 -84 25 -86 23 -5 -7 -125 -394 -123 -397 1 -1 64
18 139 42 l137 43 103 -118 c60 -70 105 -113 108 -107 15 27 120 378 115 385
-3 5 -40 19 -83 32 -43 13 -82 27 -86 30 -8 7 256 868 271 881 4 4 75 19 157
34 83 15 154 31 159 35 5 5 -44 62 -107 128 l-116 119 14 44 c8 24 22 64 31
89 22 62 22 140 -2 182 -40 69 -185 105 -319 78 -33 -6 -65 -12 -71 -13 -6 -1
-363 367 -793 818 -430 451 -785 821 -789 822 -4 1 -666 -144 -1471 -323z
m3308 -1453 c18 -18 19 -23 6 -71 -8 -29 -16 -54 -18 -56 -2 -3 -30 23 -61 57
-32 34 -54 65 -49 70 7 7 40 14 86 18 9 0 26 -8 36 -18z m-66 -261 c14 -11 33
-40 42 -63 15 -40 15 -46 0 -83 -43 -106 -188 -110 -232 -7 -22 53 -11 101 32
141 29 27 42 32 84 32 33 0 56 -6 74 -20z"/>
<path d="M1374 3726 c-124 -12 -364 -45 -372 -51 -1 -1 -45 -138 -97 -304 -52
-166 -97 -310 -100 -320 -5 -16 2 -20 52 -25 110 -13 418 -57 533 -77 773
-133 1276 -302 2044 -686 147 -74 270 -132 272 -130 3 2 49 148 104 323 l100
319 -75 72 c-135 128 -401 333 -585 449 -382 242 -704 363 -1116 420 -154 21
-582 27 -760 10z"/>
<path d="M1323 2789 c-138 -15 -302 -86 -416 -182 l-48 -40 -83 82 -83 82 -74
-86 c-149 -173 -203 -292 -197 -435 6 -157 58 -227 288 -384 166 -114 311
-220 488 -355 l123 -95 -23 -22 c-13 -12 -96 -73 -184 -136 -155 -108 -323
-246 -484 -395 l-75 -70 100 -23 c55 -12 107 -26 115 -30 8 -5 31 -40 50 -79
l34 -72 57 115 c124 249 219 351 442 480 l49 28 -38 -59 c-133 -207 -175 -291
-204 -407 -20 -82 -51 -258 -46 -264 2 -1 29 7 61 18 32 11 63 20 69 20 6 0
29 -41 51 -91 22 -50 43 -92 47 -95 3 -2 9 24 13 59 35 325 95 507 227 689 44
60 52 67 67 56 65 -50 417 -384 676 -639 191 -188 326 -314 353 -328 290 -148
632 64 733 454 31 122 30 285 -5 390 -45 139 -145 264 -258 321 -83 42 -436
295 -690 496 -481 378 -790 681 -952 936 -51 81 -37 76 -183 61z m117 -190
c67 -98 179 -228 313 -363 64 -66 117 -121 117 -123 0 -1 -11 -3 -25 -3 -32 0
-148 -44 -188 -71 -18 -12 -53 -42 -79 -67 l-47 -45 -77 69 c-42 38 -173 160
-291 273 -245 234 -235 207 -108 286 90 56 151 83 228 100 98 22 106 19 157
-56z m-471 -317 c146 -141 316 -303 377 -359 l111 -103 -48 -97 c-28 -57 -52
-120 -56 -151 l-8 -53 -190 143 c-104 79 -260 191 -345 250 -187 128 -223 162
-250 236 -28 74 -21 140 26 229 31 60 102 163 112 163 2 0 124 -116 271 -258z
m1314 -515 c135 -109 280 -220 457 -347 80 -57 147 -106 150 -108 3 -2 -6 -11
-20 -20 -107 -68 -193 -226 -221 -402 -20 -131 24 -270 117 -365 157 -162 342
-85 405 169 12 47 11 50 -12 69 -13 10 -93 80 -176 154 l-153 135 23 41 c28
49 81 94 129 109 108 32 266 -119 313 -297 47 -184 -22 -430 -161 -572 -138
-141 -315 -164 -435 -55 -99 89 -146 232 -156 477 -5 136 -1 202 23 403 6 49
6 52 -16 52 -77 0 -409 208 -677 426 l-53 42 43 37 c23 20 65 48 92 63 55 28
179 71 208 72 11 0 65 -37 120 -83z m-408 -293 c194 -152 404 -290 513 -338
l42 -19 -7 -96 c-10 -124 -10 -293 0 -401 l8 -85 -128 126 c-169 165 -325 313
-453 428 -58 52 -125 112 -149 134 l-44 40 26 101 c26 105 61 196 74 196 4 0
58 -39 118 -86z m1053 -678 c62 -54 112 -101 112 -103 0 -2 -7 -20 -15 -41
-39 -92 -99 -108 -163 -44 -41 41 -81 116 -89 168 -3 18 -2 58 2 89 8 65 -6
71 153 -69z"/>
</g>
</svg>
