<?xml version="1.0" standalone="no"?>
<!DOCTYPE svg PUBLIC "-//W3C//DTD SVG 20010904//EN"
 "http://www.w3.org/TR/2001/REC-SVG-20010904/DTD/svg10.dtd">
<svg version="1.0" xmlns="http://www.w3.org/2000/svg"
 width="512.000000pt" height="512.000000pt" viewBox="0 0 512.000000 512.000000"
 preserveAspectRatio="xMidYMid meet">

<g transform="translate(0.000000,512.000000) scale(0.100000,-0.100000)"
fill="#FFF" stroke="none">
<path d="M2435 5101 c-178 -52 -304 -181 -350 -358 -66 -253 98 -519 362 -588
343 -89 677 245 588 588 -70 268 -345 433 -600 358z"/>
<path d="M2095 3940 c-102 -15 -232 -106 -279 -197 -8 -17 -140 -316 -292
-664 -320 -734 -318 -728 -251 -840 60 -101 173 -142 286 -104 85 28 118 76
233 340 55 127 104 234 109 240 5 5 9 -513 9 -1250 l0 -1260 24 -50 c95 -205
384 -202 480 5 21 44 21 57 24 908 l3 862 119 0 119 0 3 -862 c3 -851 3 -864
24 -908 93 -202 373 -211 477 -16 l22 41 5 1274 5 1274 105 -242 c120 -278
154 -327 241 -356 113 -38 226 3 286 104 67 112 69 106 -252 841 -152 349
-287 653 -300 675 -51 86 -154 161 -255 184 -51 12 -866 13 -945 1z"/>
</g>
</svg>
